<svg width="32" height="32" viewBox="0 0 32 32" fill="none" xmlns="http://www.w3.org/2000/svg">
<path d="M16.8483 13.6448L15.9171 13.2804L16.8483 13.6448ZM21.0042 15.1108L20.181 14.5431L21.0042 15.1108ZM20.5926 14.327L20.5926 13.327L20.5926 14.327ZM13.1401 26.5145L12.3169 25.9468L13.1401 26.5145ZM14.7336 18.1875L14.7336 17.1875L14.7336 18.1875ZM15.1964 18.8768L14.2708 18.4982L15.1964 18.8768ZM11.0331 17.4102L10.2011 16.8554L11.0331 17.4102ZM11.4491 18.1875L11.4491 17.1875L11.4491 18.1875ZM19.8565 5.9577L18.9252 5.59328L19.8565 5.9577ZM18.1428 4.94341L10.2011 16.8554L11.8651 17.9649L19.8069 6.05285L18.1428 4.94341ZM11.4491 19.1875L14.7336 19.1875L14.7336 17.1875L11.4491 17.1875L11.4491 19.1875ZM14.2708 18.4982L11.3401 25.6627L13.1912 26.4199L16.1219 19.2554L14.2708 18.4982ZM13.9633 27.0822L21.8274 15.6785L20.181 14.5431L12.3169 25.9468L13.9633 27.0822ZM20.5926 13.327L17.3139 13.327L17.3139 15.327L20.5926 15.327L20.5926 13.327ZM17.7795 14.0092L20.7877 6.32212L18.9252 5.59328L15.9171 13.2804L17.7795 14.0092ZM17.3139 13.327C17.6661 13.327 17.9079 13.6813 17.7795 14.0092L15.9171 13.2804C15.5321 14.2641 16.2575 15.327 17.3139 15.327L17.3139 13.327ZM21.8274 15.6785C22.5137 14.6835 21.8013 13.327 20.5926 13.327L20.5926 15.327C20.1897 15.327 19.9522 14.8748 20.181 14.5431L21.8274 15.6785ZM11.3401 25.6627C10.6604 27.3245 12.9441 28.5602 13.9633 27.0822L12.3169 25.9468C12.3776 25.8587 12.4922 25.7723 12.6412 25.7439C12.7736 25.7187 12.8865 25.7476 12.9664 25.7909C13.0464 25.8341 13.1323 25.9128 13.1836 26.0374C13.2414 26.1777 13.2317 26.321 13.1912 26.4199L11.3401 25.6627ZM14.7336 19.1875C14.3782 19.1875 14.1363 18.8272 14.2708 18.4982L16.1219 19.2554C16.5256 18.2686 15.7998 17.1875 14.7336 17.1875L14.7336 19.1875ZM10.2011 16.8554C9.53647 17.8523 10.2511 19.1875 11.4491 19.1875L11.4491 17.1875C11.8485 17.1875 12.0867 17.6326 11.8651 17.9649L10.2011 16.8554ZM19.8069 6.05285C19.7476 6.14182 19.6342 6.23007 19.4857 6.26076C19.3537 6.28802 19.2404 6.26089 19.1597 6.21887C19.0791 6.17684 18.992 6.09949 18.9387 5.97567C18.8788 5.83631 18.8863 5.69286 18.9252 5.59328L20.7877 6.32212C21.4421 4.64988 19.139 3.44923 18.1428 4.94341L19.8069 6.05285Z" fill="#F9423A"/>
<path d="M5.33923 10.7317C4.8197 10.5443 4.24665 10.8136 4.0593 11.3331C3.87194 11.8527 4.14123 12.4257 4.66077 12.6131L5.33923 10.7317ZM7.25472 13.5485C7.77426 13.7358 8.34731 13.4666 8.53466 12.947C8.72201 12.4275 8.45272 11.8544 7.93319 11.6671L7.25472 13.5485ZM4.66077 12.6131L7.25472 13.5485L7.93319 11.6671L5.33923 10.7317L4.66077 12.6131Z" fill="#F9423A"/>
<path d="M4.59475 22.0147C4.13793 22.325 4.01922 22.947 4.32959 23.4038C4.63997 23.8606 5.26191 23.9793 5.71873 23.6689L4.59475 22.0147ZM7.99955 22.1193C8.45637 21.8089 8.57509 21.187 8.26471 20.7301C7.95434 20.2733 7.3324 20.1546 6.87558 20.465L7.99955 22.1193ZM5.71873 23.6689L7.99955 22.1193L6.87558 20.465L4.59475 22.0147L5.71873 23.6689Z" fill="#F9423A"/>
<path d="M22.1469 24.4591C21.9558 23.9409 21.3808 23.6758 20.8627 23.867C20.3445 24.0581 20.0794 24.6331 20.2705 25.1513L22.1469 24.4591ZM21.2248 27.7383C21.416 28.2565 21.991 28.5216 22.5091 28.3304C23.0273 28.1393 23.2924 27.5643 23.1013 27.0462L21.2248 27.7383ZM20.2705 25.1513L21.2248 27.7383L23.1013 27.0462L22.1469 24.4591L20.2705 25.1513Z" fill="#F9423A"/>
<path d="M10.9069 4.44736C10.6278 3.97076 10.0153 3.81062 9.53867 4.08968C9.06207 4.36874 8.90193 4.98132 9.18099 5.45791L10.9069 4.44736ZM10.5743 7.83749C10.8533 8.31409 11.4659 8.47422 11.9425 8.19517C12.4191 7.91611 12.5792 7.30353 12.3002 6.82693L10.5743 7.83749ZM9.18099 5.45791L10.5743 7.83749L12.3002 6.82693L10.9069 4.44736L9.18099 5.45791Z" fill="#F9423A"/>
<path d="M25.226 17.6454C24.7014 17.4727 24.1362 17.7579 23.9635 18.2825C23.7908 18.8071 24.0761 19.3724 24.6006 19.5451L25.226 17.6454ZM27.2198 20.4073C27.7444 20.58 28.3097 20.2947 28.4824 19.7701C28.6551 19.2455 28.3698 18.6803 27.8452 18.5076L27.2198 20.4073ZM24.6006 19.5451L27.2198 20.4073L27.8452 18.5076L25.226 17.6454L24.6006 19.5451Z" fill="#F9423A"/>
<path d="M24.3785 9.35257C23.8926 9.61504 23.7114 10.2217 23.9739 10.7077C24.2364 11.1936 24.8431 11.3747 25.329 11.1123L24.3785 9.35257ZM27.7552 9.8018C28.2411 9.53933 28.4223 8.93263 28.1598 8.44671C27.8973 7.96078 27.2906 7.77963 26.8047 8.0421L27.7552 9.8018ZM25.329 11.1123L27.7552 9.8018L26.8047 8.0421L24.3785 9.35257L25.329 11.1123Z" fill="#F9423A"/>
</svg>
