<svg width="32" height="32" viewBox="0 0 32 32" fill="none" xmlns="http://www.w3.org/2000/svg">
<path d="M15.5856 10.578C9.42719 12.157 6.36124 14.2185 4.80986 16.4409C3.26229 18.6579 3.07911 21.2281 3.17541 24.2407L3.23065 25.088C4.29269 24.0916 5.93652 23.0069 8.44985 22.182C9.32964 21.8924 10.6021 21.633 12.0044 21.3471L12.1029 21.327C13.5747 21.0269 15.2454 20.685 16.9581 20.2298C20.4167 19.3105 23.8723 17.9703 26.0877 15.7549C27.9128 13.9285 28.197 11.166 27.9163 8.62365C27.7971 7.54376 27.5939 6.59922 27.3933 5.84561C27.185 6.01983 26.9446 6.20098 26.6669 6.38851C24.9667 7.53674 21.7607 8.99562 15.5856 10.578ZM15.5856 10.578L15.3372 9.60933L15.5856 10.578Z" stroke="#F9423A" stroke-width="2" stroke-linejoin="round"/>
<path d="M13.1961 16.9806C13.7377 16.8723 14.0889 16.3454 13.9806 15.8039C13.8723 15.2623 13.3454 14.9111 12.8039 15.0194L13.1961 16.9806ZM4.45578 24.2942C5.35275 21.379 7.49053 19.5516 9.48782 18.4355C10.4821 17.8798 11.4208 17.5129 12.1101 17.2856C12.4538 17.1723 12.733 17.0945 12.9227 17.0457C13.0176 17.0213 13.0899 17.0042 13.1365 16.9936C13.1599 16.9884 13.1767 16.9847 13.1868 16.9825C13.1918 16.9815 13.1952 16.9808 13.1967 16.9805C13.1975 16.9803 13.1979 16.9802 13.1978 16.9802C13.1977 16.9803 13.1975 16.9803 13.1973 16.9803C13.1971 16.9804 13.1968 16.9804 13.1968 16.9804C13.1965 16.9805 13.1961 16.9806 13 16C12.8039 15.0194 12.8035 15.0195 12.803 15.0196C12.8029 15.0196 12.8024 15.0197 12.802 15.0198C12.8013 15.0199 12.8005 15.0201 12.7995 15.0203C12.7976 15.0207 12.7952 15.0212 12.7924 15.0218C12.7867 15.0229 12.7793 15.0245 12.77 15.0265C12.7516 15.0304 12.7261 15.0359 12.694 15.0432C12.6298 15.0578 12.5391 15.0793 12.4249 15.1086C12.1967 15.1673 11.8743 15.2574 11.4837 15.3863C10.7042 15.6433 9.64286 16.0577 8.51218 16.6896C6.25947 17.9484 3.64725 20.1211 2.54422 23.706L4.45578 24.2942Z" fill="#F9423A"/>
</svg>
