<svg width="32" height="32" viewBox="0 0 32 32" fill="none" xmlns="http://www.w3.org/2000/svg">
    <path fill-rule="evenodd" clip-rule="evenodd"
        d="M23.3347 21.4166C22.8437 21.7012 22.3266 21.9406 21.79 22.1314C21.0962 22.378 20.3337 22.0155 20.0871 21.3217C19.8404 20.6278 20.2029 19.8654 20.8968 19.6188C21.2793 19.4828 21.6478 19.3122 21.9988 19.1087C24.0465 17.925 25.3341 15.7413 25.3341 13.3337C25.3341 9.65194 22.3488 6.66706 18.6674 6.66706C16.7442 6.66706 14.9565 7.48342 13.6979 8.88864C13.2066 9.43717 12.3637 9.48355 11.8151 8.99225C11.2666 8.50095 11.2202 7.65801 11.7115 7.10948C13.4708 5.1453 15.978 4.0004 18.6674 4.0004C23.8215 4.0004 28.0007 8.17911 28.0007 13.3337C28.0007 15.3972 27.3244 17.3441 26.1427 18.9234L30.2765 23.0572C30.7972 23.5779 30.7972 24.4221 30.2765 24.9428C29.7558 25.4635 28.9115 25.4635 28.3909 24.9428L24.2566 20.8086C23.9633 21.0279 23.6557 21.2311 23.3347 21.4166ZM20.0003 15.8513C20.0003 13.0435 17.7047 10.6667 14.9012 10.6667C13.5299 10.6667 12.2626 11.209 11.3337 12.1113C10.4048 11.209 9.13739 10.6667 7.7661 10.6667C4.96149 10.6667 2.66699 13.0304 2.66699 15.8369C2.66699 18.7925 4.2134 21.376 6.77453 23.6836C7.4567 24.2982 8.17223 24.8578 8.95218 25.4085C9.26513 25.6295 9.89308 26.0521 10.1826 26.2469L10.1829 26.2471L10.1838 26.2478L10.1863 26.2494C10.271 26.3064 10.3259 26.3434 10.3341 26.3492C10.6278 26.5569 10.9774 26.6667 11.3336 26.6667C11.6896 26.6667 12.0389 26.5572 12.3332 26.3494C12.3414 26.3436 12.3968 26.3063 12.4824 26.2487L12.4826 26.2485L12.4828 26.2484C12.7714 26.0541 13.4018 25.6296 13.7156 25.408C14.4953 24.8572 15.2106 24.2977 15.8926 23.6835C18.4538 21.377 20.0003 18.7982 20.0003 15.8513ZM14.1081 21.702C13.512 22.2388 12.8769 22.7356 12.1771 23.2299C11.9833 23.3668 11.6335 23.6043 11.3337 23.8069C11.0337 23.6043 10.6839 23.3669 10.4903 23.2302C9.79051 22.7361 9.15551 22.2394 8.55953 21.7025C6.50506 19.8514 5.33366 17.8944 5.33366 15.8369C5.33366 14.4857 6.45228 13.3333 7.7661 13.3333C8.82065 13.3333 9.74257 13.9994 10.0718 14.9638C10.4826 16.1672 12.1846 16.1673 12.5954 14.9639C12.9248 13.9994 13.8467 13.3333 14.9012 13.3333C16.2108 13.3333 17.3337 14.4959 17.3337 15.8513C17.3337 17.8989 16.1624 19.8519 14.1081 21.702Z"
        fill="#F9423A" />
    <mask id="mask0_1533_38469" style="mask-type:alpha" maskUnits="userSpaceOnUse" x="2" y="4" width="29" height="23">
        <path fill-rule="evenodd" clip-rule="evenodd"
            d="M23.3347 21.4166C22.8437 21.7012 22.3266 21.9406 21.79 22.1314C21.0962 22.378 20.3337 22.0155 20.0871 21.3217C19.8404 20.6278 20.2029 19.8654 20.8968 19.6188C21.2793 19.4828 21.6478 19.3122 21.9988 19.1087C24.0465 17.925 25.3341 15.7413 25.3341 13.3337C25.3341 9.65194 22.3488 6.66706 18.6674 6.66706C16.7442 6.66706 14.9565 7.48342 13.6979 8.88864C13.2066 9.43717 12.3637 9.48355 11.8151 8.99225C11.2666 8.50095 11.2202 7.65801 11.7115 7.10948C13.4708 5.1453 15.978 4.0004 18.6674 4.0004C23.8215 4.0004 28.0007 8.17911 28.0007 13.3337C28.0007 15.3972 27.3244 17.3441 26.1427 18.9234L30.2765 23.0572C30.7972 23.5779 30.7972 24.4221 30.2765 24.9428C29.7558 25.4635 28.9115 25.4635 28.3909 24.9428L24.2566 20.8086C23.9633 21.0279 23.6557 21.2311 23.3347 21.4166ZM20.0003 15.8513C20.0003 13.0435 17.7047 10.6667 14.9012 10.6667C13.5299 10.6667 12.2626 11.209 11.3337 12.1113C10.4048 11.209 9.13739 10.6667 7.7661 10.6667C4.96149 10.6667 2.66699 13.0304 2.66699 15.8369C2.66699 18.7925 4.2134 21.376 6.77453 23.6836C7.4567 24.2982 8.17223 24.8578 8.95218 25.4085C9.26513 25.6295 9.89308 26.0521 10.1826 26.2469L10.1829 26.2471L10.1838 26.2478L10.1863 26.2494C10.271 26.3064 10.3259 26.3434 10.3341 26.3492C10.6278 26.5569 10.9774 26.6667 11.3336 26.6667C11.6896 26.6667 12.0389 26.5572 12.3332 26.3494C12.3414 26.3436 12.3968 26.3063 12.4824 26.2487L12.4826 26.2485L12.4828 26.2484C12.7714 26.0541 13.4018 25.6296 13.7156 25.408C14.4953 24.8572 15.2106 24.2977 15.8926 23.6835C18.4538 21.377 20.0003 18.7982 20.0003 15.8513ZM14.1081 21.702C13.512 22.2388 12.8769 22.7356 12.1771 23.2299C11.9833 23.3668 11.6335 23.6043 11.3337 23.8069C11.0337 23.6043 10.6839 23.3669 10.4903 23.2302C9.79051 22.7361 9.15551 22.2394 8.55953 21.7025C6.50506 19.8514 5.33366 17.8944 5.33366 15.8369C5.33366 14.4857 6.45228 13.3333 7.7661 13.3333C8.82065 13.3333 9.74257 13.9994 10.0718 14.9638C10.4826 16.1672 12.1846 16.1673 12.5954 14.9639C12.9248 13.9994 13.8467 13.3333 14.9012 13.3333C16.2108 13.3333 17.3337 14.4959 17.3337 15.8513C17.3337 17.8989 16.1624 19.8519 14.1081 21.702Z"
            fill="white" />
    </mask>
    <g mask="url(#mask0_1533_38469)">
    </g>
</svg>
