<svg width="32" height="32" viewBox="0 0 32 32" fill="none" xmlns="http://www.w3.org/2000/svg">
<path fill-rule="evenodd" clip-rule="evenodd" d="M15.9906 2.00005C15.7571 2.00201 15.5232 2.0853 15.335 2.25262C14.982 2.56641 14.6148 2.8542 14.238 3.11812L4.99817 6.00002C4.49035 6.00063 4.06352 6.38182 4.00585 6.88648L4.99938 7.00002C4.00585 6.88648 4.0058 6.88692 4.00574 6.88742L4.00559 6.88877L4.00515 6.89265L4.00378 6.90519L3.99919 6.94901C3.99538 6.98644 3.99014 7.04017 3.98401 7.10925C3.97175 7.24739 3.95589 7.44706 3.94064 7.70076C3.91015 8.20794 3.88201 8.93237 3.89007 9.81385C3.90615 11.5732 4.06654 13.9765 4.64942 16.5347C5.812 21.637 8.70854 27.5345 15.6723 29.945C15.7753 29.9807 15.8801 29.9985 15.9835 30.0002C16.0157 30.0007 16.048 29.9996 16.0804 29.997C16.1626 29.9903 16.2453 29.9732 16.3269 29.945C23.2906 27.5345 26.1871 21.637 27.3497 16.5347C27.9326 13.9765 28.093 11.5732 28.1091 9.81384C28.1171 8.93236 28.089 8.20793 28.0585 7.70075C28.0433 7.44705 28.0274 7.24737 28.0151 7.10923C28.009 7.04016 28.0038 6.98643 28 6.949L27.9954 6.90518L27.994 6.89264L27.9936 6.88876L27.9934 6.88741C27.9933 6.88691 27.9933 6.88647 26.9998 7.00001L27.9933 6.88647C27.9356 6.38181 27.5088 6.00062 27.001 6.00001L17.7611 3.11811C17.3844 2.85419 17.0171 2.5664 16.6641 2.25261C16.4711 2.08099 16.23 1.99777 15.9906 2.00005ZM15.0071 2.87825L14.238 3.11812C14.238 3.11813 14.238 3.11813 14.238 3.11814L4.99829 6.00002C4.99825 6.00002 4.99821 6.00002 4.99817 6.00002L4.99829 6.00002L4.99925 6.00002L5.00835 5.99995L5.05343 5.99925C5.09518 5.99841 5.15993 5.99667 5.24562 5.99308C5.41708 5.9859 5.67192 5.97132 5.99377 5.94172C6.63839 5.88245 7.54666 5.76344 8.58911 5.52516C10.3305 5.12712 12.3976 4.40742 14.238 3.11814L15.0071 2.87825ZM15.9996 4.30145C18.2788 6.08573 20.8918 7.00114 22.9644 7.47487C24.1095 7.7366 25.1075 7.86758 25.8222 7.93331C25.9089 7.94128 25.9915 7.9483 26.0698 7.95448C26.0948 8.41366 26.116 9.04208 26.1092 9.79556C26.094 11.458 25.9418 13.711 25.3997 16.0904C24.3321 20.7759 21.8033 25.7795 15.9996 27.9377C10.1959 25.7795 7.66706 20.7759 6.59945 16.0904C6.05731 13.711 5.90518 11.458 5.88998 9.79557C5.8831 9.0421 5.90436 8.41367 5.92938 7.95449C6.00764 7.94831 6.09023 7.94129 6.1769 7.93332C6.89168 7.86759 7.88969 7.73661 9.03475 7.47488C11.1073 7.00115 13.7203 6.08574 15.9996 4.30145ZM16.992 2.87824L17.7611 3.11811C17.7611 3.11811 17.7611 3.11812 17.7611 3.11813L16.992 2.87824ZM27.0008 6.00001L17.7611 3.11813C19.6015 4.40741 21.6686 5.12711 23.41 5.52515C24.4525 5.76342 25.3608 5.88244 26.0054 5.94171C26.3272 5.97131 26.5821 5.98589 26.7535 5.99307C26.8392 5.99666 26.904 5.9984 26.9457 5.99924L26.9908 5.99994L26.9999 6.00001L27.0008 6.00001ZM20.7066 13.2929C21.0971 13.6834 21.0971 14.3166 20.7066 14.7071L15.7066 19.7071C15.3161 20.0976 14.6829 20.0976 14.2924 19.7071L11.2924 16.7071C10.9019 16.3166 10.9019 15.6834 11.2924 15.2929C11.6829 14.9024 12.3161 14.9024 12.7066 15.2929L14.9995 17.5858L19.2924 13.2929C19.6829 12.9024 20.3161 12.9024 20.7066 13.2929Z" fill="#F9423A"/>
</svg>
