<svg width="32" height="32" viewBox="0 0 32 32" fill="none" xmlns="http://www.w3.org/2000/svg">
<path fill-rule="evenodd" clip-rule="evenodd" d="M9.43335 1.64102C9.28481 1.25483 8.91377 1 8.5 1C8.08623 1 7.71519 1.25483 7.56665 1.64102L5.92065 5.92064L1.64102 7.56665C1.25483 7.71519 1 8.08623 1 8.5C1 8.91377 1.25483 9.28481 1.64102 9.43335L5.92065 11.0794L7.56665 15.359C7.71519 15.7452 8.08623 16 8.5 16C8.91377 16 9.28481 15.7452 9.43334 15.359L11.0794 11.0794L15.359 9.43335C15.7452 9.28481 16 8.91377 16 8.5C16 8.08623 15.7452 7.71519 15.359 7.56666L11.0794 5.92065L9.43335 1.64102ZM7.62779 7.05342L8.5 4.78568L9.37221 7.05342C9.47378 7.31752 9.68248 7.52622 9.94658 7.62779L12.2143 8.5L9.94658 9.37221C9.68248 9.47378 9.47378 9.68248 9.37221 9.94658L8.5 12.2143L7.62779 9.94658C7.52622 9.68248 7.31752 9.47378 7.05342 9.37221L4.78568 8.5L7.05342 7.62779C7.31752 7.52622 7.52622 7.31752 7.62779 7.05342ZM22 8C22.4138 8 22.7848 8.25483 22.9333 8.64102L25.2738 14.7262L31.359 17.0667C31.7452 17.2152 32 17.5862 32 18C32 18.4138 31.7452 18.7848 31.359 18.9333L25.2738 21.2738L22.9333 27.359C22.7848 27.7452 22.4138 28 22 28C21.5862 28 21.2152 27.7452 21.0667 27.359L18.7262 21.2738L12.641 18.9333C12.2548 18.7848 12 18.4138 12 18C12 17.5862 12.2548 17.2152 12.641 17.0667L18.7262 14.7262L21.0667 8.64102C21.2152 8.25483 21.5862 8 22 8ZM22 11.7857L20.4333 15.859C20.3318 16.1231 20.1231 16.3318 19.859 16.4333L15.7857 18L19.859 19.5667C20.1231 19.6682 20.3318 19.8769 20.4333 20.141L22 24.2143L23.5667 20.141C23.6682 19.8769 23.8769 19.6682 24.141 19.5667L28.2143 18L24.141 16.4333C23.8769 16.3318 23.6682 16.1231 23.5667 15.859L22 11.7857ZM6 19C6.41377 19 6.78481 19.2548 6.93335 19.641L8.16269 22.8373L11.359 24.0667C11.7452 24.2152 12 24.5862 12 25C12 25.4138 11.7452 25.7848 11.359 25.9333L8.16269 27.1627L6.93335 30.359C6.78481 30.7452 6.41377 31 6 31C5.58623 31 5.21519 30.7452 5.06665 30.359L3.83731 27.1627L0.641021 25.9333C0.254829 25.7848 0 25.4138 0 25C0 24.5862 0.254829 24.2152 0.641021 24.0667L3.83731 22.8373L5.06665 19.641C5.21519 19.2548 5.58623 19 6 19ZM6 22.7857L5.54446 23.9701C5.44288 24.2342 5.23418 24.4429 4.97009 24.5445L3.78568 25L4.97009 25.4555C5.23418 25.5571 5.44288 25.7658 5.54446 26.0299L6 27.2143L6.45554 26.0299C6.55712 25.7658 6.76582 25.5571 7.02991 25.4555L8.21432 25L7.02991 24.5445C6.76582 24.4429 6.55712 24.2342 6.45554 23.9701L6 22.7857Z" fill="#F9423A"/>
</svg>
